<svg id="Layer_1" enable-background="new 0 0 256 256" height="512" viewBox="0 0 256 256" width="512" xmlns="http://www.w3.org/2000/svg"><g><path d="m211.215 158.828c-.796-.913-1.665-1.747-2.594-2.496l2.534-.682c3.034-.818 5.047-3.787 4.683-6.907l-.936-8.026c-.375-3.22-3.102-5.649-6.341-5.649-.561 0-1.122.074-1.667.221l-13.854 3.737c-.208.056-.412.123-.612.199l-6.086-16.588c-.356-.97-.798-1.891-1.318-2.757 7.359-.405 13.221-6.52 13.221-13.979v-71.921c0-7.72-6.28-14-14-14h-112.474c-7.72 0-14 6.28-14 14v71.922c0 7.471 5.881 13.594 13.258 13.981-.519.865-.961 1.786-1.316 2.755l-6.19 16.87c-.393-.202-.809-.364-1.243-.481l-13.853-3.737c-.544-.147-1.105-.221-1.667-.221-3.24 0-5.966 2.428-6.342 5.649l-.936 8.026c-.364 3.12 1.649 6.089 4.681 6.907l3.089.832c-.917.757-1.773 1.596-2.556 2.514-3.811 4.465-5.538 10.361-4.738 16.177l2.538 18.465v32.313c0 6.469 5.263 11.733 11.732 11.733h21.912c5.913 0 10.819-4.398 11.619-10.094h80.54c.799 5.697 5.705 10.094 11.619 10.094h21.909c6.469 0 11.732-5.263 11.732-11.733v-32.313l2.538-18.465c.81-5.901-.969-11.858-4.882-16.346zm.918 15.798-2.576 18.736v32.586c0 4.271-3.462 7.733-7.732 7.733h-21.909c-4.271 0-7.733-3.462-7.733-7.733v-2.362h-88.311v2.362c0 4.271-3.462 7.733-7.733 7.733h-21.908c-4.271 0-7.732-3.462-7.732-7.733v-32.586l-2.576-18.736c-1.355-9.853 6.195-18.647 16.085-18.856l-14.802-3.984c-1.142-.308-1.886-1.406-1.75-2.581l.936-8.026c.144-1.233 1.192-2.112 2.369-2.112.206 0 .415.027.625.083l13.853 3.737c.766.207 1.345.772 1.608 1.474l.004-.013 1.585 4.284 9.033-24.619c1.788-4.873 6.427-8.113 11.619-8.113h-13.317c-5.523 0-10-4.477-10-10v-71.92c0-5.523 4.477-10 10-10h112.476c5.523 0 10 4.477 10 10v71.922c0 5.523-4.477 10-10 10h-13.277c5.191 0 9.83 3.24 11.619 8.113l8.667 23.622 1.216-3.288.004.013c.262-.702.841-1.268 1.607-1.474l13.853-3.737c.209-.057.419-.083.625-.083 1.177 0 2.225.879 2.369 2.112l.936 8.026c.137 1.175-.607 2.273-1.75 2.581l-14.786 3.979h.359c10.066 0 17.815 8.888 16.444 18.86z" fill="#422618"/><g><g><g><g><g><g><g><g><path d="m192.472 144.35.004.013c.262-.702.841-1.268 1.607-1.474l13.853-3.737c1.408-.38 2.824.58 2.993 2.029l.936 8.026c.137 1.175-.607 2.273-1.75 2.581l-17.273 4.649c-1.316.354-2.701-.264-3.315-1.481-.361-.714-.408-1.545-.13-2.295z" fill="#a48bc1"/></g></g></g><g><g><g><path d="m62.85 144.35-.004.013c-.262-.702-.841-1.268-1.607-1.474l-13.853-3.737c-1.408-.38-2.824.58-2.993 2.029l-.936 8.026c-.137 1.175.607 2.273 1.75 2.581l17.273 4.649c1.316.354 2.701-.264 3.315-1.481.361-.714.408-1.545.13-2.295z" fill="#a48bc1"/></g></g></g></g><g><g><g><path d="m76.14 233.681h-21.909c-4.27 0-7.732-3.462-7.732-7.733v-37.085c0-4.271 3.462-7.733 7.732-7.733h21.909c4.271 0 7.733 3.462 7.733 7.733v37.085c-.001 4.271-3.463 7.733-7.733 7.733z" fill="#a3a09d"/></g></g><g><g><path d="m201.825 233.681h-21.909c-4.271 0-7.733-3.462-7.733-7.733v-37.085c0-4.271 3.462-7.733 7.733-7.733h21.909c4.27 0 7.732 3.462 7.732 7.733v37.085c.001 4.271-3.461 7.733-7.732 7.733z" fill="#a3a09d"/></g></g></g><g><g><path d="m199.306 223.587h-142.556c-3.494 0-6.451-2.579-6.927-6.04l-5.901-42.921c-1.371-9.972 6.378-18.86 16.444-18.86h135.322c10.066 0 17.815 8.888 16.444 18.86l-5.901 42.921c-.474 3.461-3.432 6.04-6.925 6.04z" fill="#ba9dd6"/></g></g><g><g><path d="m107.781 155.766h14.906v38.138h-14.906z" fill="#8c77aa"/></g><g><path d="m133.369 155.766h14.906v38.138h-14.906z" fill="#8c77aa"/></g></g><g><g><path d="m46.573 193.904 3.25 23.643c.476 3.461 3.433 6.04 6.927 6.04h142.555c3.494 0 6.451-2.579 6.927-6.04l3.25-23.643z" fill="#8c77aa"/></g></g><g><g><path d="m170.97 115.903h-85.883c-5.191 0-9.831 3.24-11.619 8.113l-11.65 31.751h132.42l-11.65-31.751c-1.788-4.874-6.427-8.113-11.618-8.113z" fill="#a3a09d"/></g></g><g><g><path d="m90.311 185.202h-31.454c-1.506 0-2.779-1.113-2.981-2.605l-.636-4.705c-.244-1.805 1.159-3.411 2.981-3.411h31.454c1.505 0 2.779 1.113 2.981 2.605l.636 4.705c.244 1.805-1.159 3.411-2.981 3.411z" fill="#fedbb0"/></g></g><g><g><path d="m165.745 185.202h31.454c1.506 0 2.779-1.113 2.981-2.605l.636-4.705c.244-1.805-1.159-3.411-2.981-3.411h-31.454c-1.505 0-2.779 1.113-2.981 2.605l-.636 4.705c-.244 1.805 1.16 3.411 2.981 3.411z" fill="#fedbb0"/></g></g><g><g><path d="m185.219 155.766h-114.382l9.607-28.286c1.025-3.016 3.394-4.974 6.018-4.974h83.132c2.624 0 4.992 1.958 6.018 4.974z" fill="#fedbb0"/></g></g><g><g><path d="m183.056 155.766h-110.056c2.07-3.021 4.946-4.918 8.162-4.918h93.732c3.216 0 6.092 1.897 8.162 4.918z" fill="#e8c197"/></g></g><g><g><path d="m155.002 215.74h-53.948c-2.678 0-4.384-2.862-3.11-5.218l3.741-6.918c.618-1.142 1.812-1.854 3.11-1.854h46.466c1.299 0 2.492.712 3.11 1.854l3.741 6.918c1.274 2.356-.432 5.218-3.11 5.218z" fill="#ba9dd6"/></g></g><g><g><g><path d="m80.984 207.406h-19c-1.562 0-2.828-1.266-2.828-2.828 0-1.562 1.266-2.828 2.828-2.828h19c1.562 0 2.828 1.266 2.828 2.828 0 1.562-1.266 2.828-2.828 2.828z" fill="#e8c197"/></g></g><g><g><path d="m194.072 207.406h-19c-1.562 0-2.828-1.266-2.828-2.828 0-1.562 1.266-2.828 2.828-2.828h19c1.562 0 2.828 1.266 2.828 2.828 0 1.562-1.266 2.828-2.828 2.828z" fill="#e8c197"/></g></g></g></g></g></g><g><path d="m184.247 115.903h-112.476c-5.523 0-10-4.477-10-10v-71.923c0-5.523 4.477-10 10-10h112.476c5.523 0 10 4.477 10 10v71.922c0 5.523-4.477 10.001-10 10.001z" fill="#a9ce91"/></g><g><path d="m124.432 139.219-15.292-30.584h37.739l-15.292 30.584c-1.474 2.949-5.681 2.949-7.155 0z" fill="#a9ce91"/></g><g><g><path d="m167.03 69.941c0 3.912-5.963 6.833-7.109 10.363-1.188 3.658 1.881 9.519-.338 12.564-2.239 3.078-8.774 1.959-11.85 4.197-3.045 2.216-3.991 8.789-7.649 9.977-3.53 1.146-8.142-3.579-12.057-3.579s-8.524 4.724-12.057 3.579c-3.658-1.188-4.604-7.761-7.649-9.977-3.078-2.238-9.612-1.122-11.85-4.197-2.216-3.045.85-8.906-.338-12.564-1.146-3.53-7.109-6.451-7.109-10.363s5.963-6.833 7.109-10.363c1.188-3.658-1.881-9.519.338-12.564 2.239-3.078 8.774-1.959 11.85-4.197 3.045-2.216 3.991-8.789 7.649-9.977 3.53-1.146 8.142 3.579 12.057 3.579s8.524-4.724 12.057-3.579c3.658 1.188 4.604 7.761 7.649 9.977 3.078 2.238 9.612 1.122 11.85 4.197 2.216 3.045-.85 8.906.338 12.564 1.146 3.53 7.109 6.451 7.109 10.363z" fill="#99bc82"/></g><g><g><path d="m131.186 89.298h-6.312c-5.453 0-9.89-4.437-9.89-9.89 0-1.104.896-2 2-2s2 .896 2 2c0 3.248 2.642 5.89 5.89 5.89h6.312c3.248 0 5.89-2.642 5.89-5.89v-3.156c0-3.247-2.642-5.889-5.89-5.889h-6.312c-5.453 0-9.89-4.437-9.89-9.89s4.437-9.89 9.89-9.89h6.312c5.453 0 9.89 4.437 9.89 9.89 0 1.104-.896 2-2 2s-2-.896-2-2c0-3.248-2.642-5.89-5.89-5.89h-6.312c-3.248 0-5.89 2.642-5.89 5.89s2.642 5.89 5.89 5.89h6.312c5.453 0 9.89 4.436 9.89 9.889v3.156c-.001 5.454-4.437 9.89-9.89 9.89z" fill="#fedbb0"/></g><g><path d="m128.03 92.454c-1.104 0-2-.896-2-2v-41.025c0-1.104.896-2 2-2s2 .896 2 2v41.025c0 1.105-.895 2-2 2z" fill="#fedbb0"/></g></g></g></g></g></svg>